<svg width="153" height="154" viewBox="0 0 153 154" fill="none" xmlns="http://www.w3.org/2000/svg">
<path d="M29.413 106.785C28.8367 106.523 28.6457 105.799 29.0181 105.287L85.947 27.0094C86.1127 26.7816 86.3668 26.6343 86.6468 26.6036L132.99 21.5248C133.632 21.4546 134.171 22.0008 134.092 22.641L129.034 63.7384C129 64.0088 128.858 64.2539 128.64 64.4171L48.6009 124.281C48.0719 124.677 47.3113 124.46 47.0707 123.845L42.9225 113.237C42.8277 112.994 42.642 112.798 42.405 112.691L29.413 106.785Z" fill="#D9D9D9"/>
<path d="M2.79195 104.564L6.53027 95.2422L37.4834 117.336L57.7958 146.508L48.9389 150.711L2.79195 104.564Z" fill="#D9D9D9"/>
<path d="M3.81971 142.382C1.86709 140.43 1.86709 137.264 3.81971 135.311L19.3617 119.769L33.122 133.529L17.58 149.071C15.6274 151.024 12.4616 151.024 10.5089 149.071L3.81971 142.382Z" fill="#D9D9D9"/>
</svg>
