<svg width="277" height="265" viewBox="0 0 277 265" fill="none" xmlns="http://www.w3.org/2000/svg">
<path d="M122.332 11.7599C127.421 -3.90242 149.579 -3.90241 154.668 11.7599L175.657 76.3577C177.933 83.3621 184.46 88.1044 191.825 88.1044H259.747C276.215 88.1044 283.063 109.178 269.74 118.858L214.789 158.781C208.831 163.11 206.338 170.784 208.614 177.788L229.603 242.386C234.692 258.048 216.766 271.072 203.443 261.392L148.492 221.469C142.534 217.14 134.466 217.14 128.508 221.469L73.5575 261.392C60.2343 271.072 42.3082 258.048 47.3972 242.386L68.3863 177.788C70.6621 170.784 68.1689 163.11 62.2106 158.781L7.26045 118.858C-6.06268 109.178 0.784517 88.1044 17.2528 88.1044H85.175C92.5398 88.1044 99.0671 83.3621 101.343 76.3577L122.332 11.7599Z" fill="#D9D9D9"/>
</svg>
