<svg width="108" height="130" viewBox="0 0 108 130" fill="none" xmlns="http://www.w3.org/2000/svg">
<rect y="107.12" width="108" height="22.88" rx="6" fill="#D9D9D9"/>
<path d="M14.6797 4C14.6797 1.79086 16.4705 0 18.6797 0H27.2306C29.4397 0 31.2305 1.79086 31.2305 4V4.86364C31.2305 7.07277 33.0214 8.86364 35.2305 8.86364H37.4176C39.6267 8.86364 41.4176 7.07278 41.4176 4.86364V4C41.4176 1.79086 43.2084 0 45.4176 0H63.6311C65.8403 0 67.6311 1.79086 67.6311 4V4.86364C67.6311 7.07277 69.422 8.86364 71.6311 8.86364H75.6571C77.8663 8.86364 79.6571 7.07278 79.6571 4.86364V4C79.6571 1.79086 81.448 0 83.6571 0H90.369C92.5782 0 94.369 1.79086 94.369 4V27.2C94.369 29.4091 92.5781 31.2 90.369 31.2H18.6797C16.4706 31.2 14.6797 29.4091 14.6797 27.2V4Z" fill="#D9D9D9"/>
<path d="M28.7677 37.3115C28.8068 36.233 29.6915 35.3599 30.7707 35.3599H79.2619C80.3665 35.3599 81.2615 36.2734 81.2656 37.3779C81.3925 71.9675 84.8423 83.6512 93.502 90.0662C94.0355 90.4615 94.3687 91.0774 94.3687 91.7413V100.44C94.3687 101.544 93.4733 102.44 92.3687 102.44H15.6309C14.5263 102.44 13.6309 101.544 13.6309 100.44V91.695C13.6309 91.0568 13.9387 90.46 14.4414 90.0668C23.7975 82.7465 27.5534 70.8367 28.7677 37.3115Z" fill="#D9D9D9"/>
</svg>
