<svg width="29" height="29" viewBox="0 0 29 29" fill="none" xmlns="http://www.w3.org/2000/svg">
<path d="M0 13.0026C0 12.1321 0.721354 11.4265 1.61119 11.4265H5.37063C6.26046 11.4265 6.98182 12.1321 6.98182 13.0026V25.6111C6.98182 26.4815 6.26046 27.1872 5.37063 27.1872H1.61119C0.721354 27.1872 0 26.4815 0 25.6111V13.0026Z" fill="#E2E2E2"/>
<path d="M8.58211 13.42C8.58917 13.0646 8.72007 12.7204 8.95158 12.4465C12.8665 7.81379 13.838 6.77878 14.3803 1.35472C14.4565 0.592477 15.1049 0 15.8879 0C18.149 0 19.8376 2.03451 19.3732 4.19917L18.4119 8.67934C18.1977 9.67766 18.9141 11.884 19.9564 11.8534H25.9957C28.0699 11.7925 29.5158 13.0121 28.8259 14.9265L25.7216 25.6111C25.0472 27.4824 22.4113 29.2309 20.3999 28.975L9.75554 26.5812C8.94098 26.4776 8.33654 25.7911 8.35249 24.9877L8.58211 13.42Z" fill="#E2E2E2"/>
</svg>
